<svg xmlns="http://www.w3.org/2000/svg" viewBox="0 0 96 96">
  <rect width="96" height="96" fill="#b5e2fa"/>
  <circle cx="74" cy="22" r="9" fill="#ffd166"/>
  <path d="M0 66h96v30H0z" fill="#1982c4"/>
  <path d="M0 69c13-6 25-6 38 0s25 6 38 0 16-4 20 0v27H0z" fill="#0f5f8f"/>
  <path d="M0 60 18 45l15 7 18-22 17 19 28-13v31H0z" fill="#588157"/>
  <path d="M15 74h66" stroke="#fefae0" stroke-width="5" stroke-linecap="round"/>
  <path d="M27 52h42l-7 18H34z" fill="#fefae0"/>
  <path d="M32 42h30l7 10H27z" fill="#f4a261"/>
  <path d="M47 24v18" stroke="#264653" stroke-width="5" stroke-linecap="round"/>
  <path d="M47 26 64 35 47 42z" fill="#e63946"/>
</svg>
